<svg id="Layer_1" data-name="Layer 1" xmlns="http://www.w3.org/2000/svg" viewBox="0 0 235.17 142.88"><defs><style>.cls-1{fill:#f8f8f8;}.cls-2{fill:#fff;}</style></defs><title>logo</title><path class="cls-1" d="M147.11,158.47a44.56,44.56,0,0,1-9.94,19.8A42.78,42.78,0,0,0,147.11,158.47Z" transform="translate(-10.87 -53)"/><path class="cls-2" d="M169.8,53c-30.53,0-56.15,14.36-68.51,38.41l-3.93,7.64,73,0c12.14,0,21.3,10.82,21.3,25.18,0,14.56-9.16,25.55-21.3,25.55A19.92,19.92,0,0,1,162,148h0c-7.88-3.66-13.21-11.83-13.92-21.41v22.86c0,.46,0,.9,0,1.36a33.16,33.16,0,0,0,9.56,6.71l1.06-2.29-1,2.28a30.32,30.32,0,0,0,12.79,2.83c17.82,0,31.78-15.82,31.78-36S188.49,88.6,170.37,88.6l-55,0C127,72.73,146.76,63.5,169.8,63.5c38.1,0,65.76,25.47,65.76,60.57,0,35.53-27.66,61.32-65.76,61.32a78.45,78.45,0,0,1-18.71-2.21l-2.52,10.18a88.72,88.72,0,0,0,21.23,2.51c44.18,0,76.24-30.2,76.24-71.8C246,82.89,214,53,169.8,53Z" transform="translate(-10.87 -53)"/><path class="cls-2" d="M148.05,115.52v33.89a43.47,43.47,0,0,1-31,41.69l-.31.11a113.44,113.44,0,0,1-30.52,4.67c-43.62,0-75.31-30.11-75.31-71.62C10.87,83,43.72,53,89,53h41.28a78.47,78.47,0,0,0-16.84,10.49H89c-39.15,0-67.59,25.56-67.59,60.77,0,35.42,27.26,61.14,64.82,61.14a103.56,103.56,0,0,0,27.62-4.28l.3-.09a32.93,32.93,0,0,0,23.47-31.62V126H108.5v14.81a19.42,19.42,0,0,1-19.21,19.48c-19.74,0-34.52-15.5-34.52-36,0-20.34,14.62-35.67,34-35.67h4.5L87.9,99.1c-13.17.44-22.65,10.88-22.65,25.16,0,14.81,10,25.55,23.89,25.55a8.94,8.94,0,0,0,8.87-9V115.52Z" transform="translate(-10.87 -53)"/></svg>